<svg width="25" height="25" viewBox="0 0 14 13" fill="none"
  xmlns="http://www.w3.org/2000/svg">
  <path d="M12.6586 4.9037C12.3937 4.9037 11.4708 4.9037 10.1276 4.9037C9.04748 4.9037 8.83983 4.7217 8.83983 4.43073C8.83983 4.09834 9.37987 3.51728 9.50464 3.30919C9.62941 3.10154 10.4185 2.39574 10.5847 1.35708C10.7509 0.318423 9.50464 -0.429241 9.08934 0.276997C8.84281 0.696125 8.2169 1.93858 7.46921 2.47862C6.08236 3.48053 4.9352 5.66121 3.49023 5.66121V11.1103C4.68098 11.1103 7.37862 12.4339 8.33437 12.6253C9.41659 12.842 10.8308 13.32 11.5815 12.3006C12.0441 11.6722 12.7692 9.23213 13.3135 7.50178C14.694 6.1756 13.7408 4.9037 12.6586 4.9037Z" fill="white"/>
  <path d="M0 6.72112V11.4572C0 12.0425 0.474253 12.5172 1.05958 12.5172H1.66199C2.05208 12.5172 2.36867 12.201 2.36867 11.8105V5.66113H1.05958C0.474253 5.66113 0 6.1358 0 6.72112Z" fill="white"/>
</svg>
