<svg width="25" height="25" viewBox="0 0 14 16" fill="none"
  xmlns="http://www.w3.org/2000/svg">
  <path d="M4.8094 8.28714V9.14895C4.8094 9.30423 4.94242 9.4307 5.10697 9.4307H5.83263C5.99668 9.4307 6.1297 9.30423 6.1297 9.14895V8.42726H6.37748V9.14895C6.37748 9.30423 6.5105 9.4307 6.67455 9.4307H7.40068C7.56473 9.4307 7.69825 9.30423 7.69825 9.14895V8.42726H7.94556V9.14895C7.94556 9.30423 8.07858 9.4307 8.24313 9.4307H8.9688C9.13284 9.4307 9.26586 9.30423 9.26586 9.14895V8.28714C10.022 8.06936 11.2847 7.56398 11.7143 6.54251C12.0261 5.79982 11.9039 4.82229 11.4369 2.938C10.9688 1.05275 9.60915 0 7.0371 0C4.46504 0 3.10584 1.05275 2.63833 2.938C2.17082 4.82229 2.04815 5.79982 2.36097 6.54251C2.79008 7.56398 4.05271 8.06889 4.8094 8.28714ZM8.83225 3.40091C9.51604 3.29007 10.1831 3.82426 10.322 4.59329C10.4604 5.36282 10.0185 6.0762 9.33522 6.18754C8.65045 6.29789 7.98293 5.7647 7.84451 4.99466C7.7061 4.2256 8.14848 3.51222 8.83225 3.40091ZM8.0002 6.91604H7.0371H6.07496L7.0371 5.77542L8.0002 6.91604ZM3.75268 4.59329C3.89261 3.82426 4.55865 3.29007 5.24242 3.40091C5.92668 3.51226 6.36957 4.22563 6.23015 4.99466C6.09171 5.7647 5.42519 6.29789 4.74092 6.18754C4.05615 6.0762 3.61424 5.36282 3.75268 4.59329Z" fill="white"/>
  <path d="M13.1231 12.4324C12.6063 12.2058 11.9989 12.3963 11.7206 12.8548C11.5162 13.1067 11.1984 13.0081 11.0526 12.9446C10.9442 12.8972 9.81409 12.4021 8.47214 11.8147C9.62539 11.2913 10.5777 10.8591 10.7683 10.7727C11.2949 10.5339 11.6733 10.4035 12.0206 10.6858C12.3236 11.0862 12.894 11.2361 13.3788 11.0164C13.9232 10.7698 14.1532 10.1511 13.8926 9.63501C13.7355 9.32251 13.434 9.12035 13.1005 9.06323C13.263 8.78101 13.2862 8.43235 13.128 8.11938C12.8679 7.60325 12.2157 7.3855 11.6713 7.63207C11.1999 7.84594 10.9649 8.33813 11.0792 8.80151C11.1063 9.15013 10.5826 9.42944 10.2353 9.58716C9.99289 9.69704 8.49528 10.3894 6.89422 11.1238C5.38872 10.4646 3.99752 9.85573 3.76156 9.7527C3.23099 9.52026 2.88367 9.32741 2.89108 8.89429C3.02312 8.41772 2.78123 7.9055 2.29301 7.69116C1.7457 7.45191 1.0964 7.67847 0.843193 8.19801C0.689995 8.51247 0.718056 8.8611 0.885063 9.14185C0.552025 9.20288 0.253511 9.40845 0.100786 9.72291C-0.151948 10.2429 0.0869769 10.8582 0.63482 11.0979C1.10923 11.3054 1.659 11.1629 1.96199 10.7839C2.2285 10.5413 2.78911 10.7454 3.13792 10.8992C3.32018 10.9788 4.21188 11.3621 5.32472 11.8421C3.98475 12.4524 2.84971 12.9627 2.67139 13.0189C2.56548 13.0525 2.47039 13.0565 2.38665 13.0443C2.38025 13.0301 2.37483 13.015 2.36745 13.0013C2.10784 12.4852 1.45507 12.2669 0.910728 12.514C0.366353 12.7606 0.136288 13.3797 0.396904 13.8958C0.554548 14.2074 0.855553 14.41 1.18906 14.4671C1.02697 14.7493 1.00383 15.0985 1.16097 15.411C1.42206 15.9271 2.07382 16.1453 2.6182 15.8987C3.13253 15.6649 3.36552 15.1009 3.17093 14.6048C3.09702 14.2952 3.3793 14.1253 3.52414 14.0594C3.6537 14.0013 5.24445 13.2791 6.9061 12.5252C8.72147 13.3118 10.5462 14.1102 10.7521 14.2318C10.8467 14.2874 10.9107 14.3543 10.9541 14.4232C10.9462 14.4369 10.9383 14.45 10.9314 14.4642C10.6787 14.9837 10.9171 15.5985 11.4654 15.8392C12.0133 16.0785 12.6621 15.8519 12.9153 15.3324C13.068 15.0184 13.0399 14.6693 12.8734 14.389C13.2064 14.3275 13.5045 14.1214 13.6577 13.8079C13.9104 13.2879 13.6714 12.6721 13.1231 12.4324Z" fill="white"/>
</svg>
