<svg xmlns:xlink="http://www.w3.org/1999/xlink" xmlns="http://www.w3.org/2000/svg" fill="none" viewBox="0 0 65 64" class="css-1dwgdjl" width="65"  height="64" ><path stroke-linecap="square" stroke-linejoin="round" stroke-opacity="0.48" d="m20.872 19.524-1.347 1.347m.008 22.284L20.88 44.5m22.292-.007 1.346-1.346m-.015-22.293-1.347-1.347m-26.898 36.12c0-8.701 7.055-15.749 15.748-15.749 8.694 0 15.749 7.048 15.749 15.749m7.874-7.867c-8.7 0-15.748-7.055-15.748-15.748s7.047-15.749 15.748-15.749m-7.868-7.882c0 8.7-7.056 15.748-15.749 15.748S16.264 17.083 16.264 8.382m-7.881 7.874c8.7 0 15.748 7.056 15.748 15.749S17.084 47.754 8.383 47.754m49.07-41.198-3.937 3.937M6.572 6.57l3.937 3.937M6.58 57.455l3.936-3.937m46.957 3.929-3.937-3.937" style="" stroke="#FFFFFF" fill="none"></path><path stroke-linecap="square" stroke-linejoin="round" d="M32.023 32.005a3.937 3.937 0 1 0 0 7.874 3.937 3.937 0 0 0 0-7.874Zm0 0a3.937 3.937 0 1 0-3.937-3.938m3.937 3.938a3.937 3.937 0 0 1-3.937-3.938m0 0a3.937 3.937 0 1 0 0 7.875 3.937 3.937 0 0 0 0-7.875ZM24.13 63.51v-7.882a7.877 7.877 0 0 1 7.874-7.875 7.877 7.877 0 0 1 7.874 7.875v7.882m23.633-23.631H55.63a7.877 7.877 0 0 1-7.874-7.874 7.877 7.877 0 0 1 7.874-7.875h7.882m-15.74 7.875h5.905M32.022 16.256v-5.905m-15.75 21.654h-5.905m21.655 15.748v5.906M39.879.5v7.882a7.877 7.877 0 0 1-7.874 7.874 7.877 7.877 0 0 1-7.874-7.874V.5M.5 24.13h7.882a7.877 7.877 0 0 1 7.874 7.875 7.877 7.877 0 0 1-7.874 7.874H.5m39.396-7.874a3.937 3.937 0 1 1-7.875 0 3.937 3.937 0 0 1 7.875 0Zm-5.922 23.623a1.969 1.969 0 1 1-3.937 0 1.969 1.969 0 0 1 3.937 0Zm23.623-23.623a1.969 1.969 0 1 1-3.937 0 1.969 1.969 0 0 1 3.937 0ZM33.974 8.382a1.969 1.969 0 1 1-3.937 0 1.969 1.969 0 0 1 3.937 0Zm-16.732-.984a.984.984 0 1 1-1.969 0 .984.984 0 0 1 1.969 0Zm31.52 0a.984.984 0 1 1-1.969 0 .984.984 0 0 1 1.968 0ZM8.398 47.769a.984.984 0 1 1-1.968 0 .984.984 0 0 1 1.968 0Zm0-31.52a.984.984 0 1 1-1.968 0 .984.984 0 0 1 1.968 0ZM48.77 56.611a.984.984 0 1 1-1.968 0 .984.984 0 0 1 1.968 0Zm-31.527 0a.984.984 0 1 1-1.969 0 .984.984 0 0 1 1.969 0ZM57.613 16.24a.984.984 0 1 1-1.969 0 .984.984 0 0 1 1.97 0Zm0 31.528a.984.984 0 1 1-1.969 0 .984.984 0 0 1 1.97 0ZM10.351 32.005a1.969 1.969 0 1 1-3.937 0 1.969 1.969 0 0 1 3.937 0Z" style="" stroke="#FFFFFF" fill="none"></path><defs><radialGradient id="icon-objective-2_svg__a" cx="0" cy="0" r="1" gradientTransform="matrix(0 -63.0099 63.0123 0 32.104 63.51)" gradientUnits="userSpaceOnUse"><stop stop-color="#08C1FC"></stop><stop offset="1" stop-color="#14EBEB"></stop></radialGradient></defs></svg>