<svg xmlns:xlink="http://www.w3.org/1999/xlink" xmlns="http://www.w3.org/2000/svg" fill="none" viewBox="0 0 66 66" class="css-1dwgdjl" width="66"  height="66" ><path stroke-linecap="square" stroke-linejoin="round" stroke-opacity="0.48" d="m6.737 6.768 8.468 8.468m-8.5 44.027 8.468-8.468m44.028 8.5-8.468-8.468m8.5-44.028-8.468 8.468m-33.468 15.79c.892-7.15 6.556-12.813 13.697-13.706m-11.823-6.017-7.9 7.899m19.723 29.47c-7.148-.892-12.812-6.556-13.705-13.697m31.352-.008c-.893 7.149-6.557 12.813-13.698 13.705m-.008-31.344c7.15.892 12.813 6.556 13.706 13.697M11.27 46.83l7.9 7.899m27.597 0 7.899-7.9m0-27.596-7.9-7.9M7.315 5.37a1.975 1.975 0 1 1-3.95 0 1.975 1.975 0 0 1 3.95 0Zm-.032 55.292a1.975 1.975 0 1 1-3.95 0 1.975 1.975 0 0 1 3.95 0Zm55.292.032a1.975 1.975 0 1 1-3.95 0 1.975 1.975 0 0 1 3.95 0Zm.032-55.292a1.975 1.975 0 1 1-3.95 0 1.975 1.975 0 0 1 3.95 0Z" style="" stroke="#FFFFFF" fill="none"></path><path stroke-linecap="square" stroke-linejoin="round" d="M36.92 36.981a3.95 3.95 0 1 1-3.95-3.95m3.95 3.95a3.95 3.95 0 0 0-3.95-3.95m3.95 3.95a3.95 3.95 0 1 0 0-7.899m0 7.9a3.95 3.95 0 0 1-3.95-3.95m0 0a3.95 3.95 0 0 1 3.95-3.95m-3.95 3.95a3.95 3.95 0 0 0 3.95-3.95m-3.95 3.95a3.95 3.95 0 1 1 3.95-3.95m-3.95 21.707v13.847m17.758-31.604h13.847M32.97 15.266V1.426M15.205 33.033H1.365m.008-3.95v7.9m27.648 27.647h7.899m-7.9-63.204h7.9M64.567 36.98v-7.899m-31.597 3.95a3.95 3.95 0 1 1-7.9 0 3.95 3.95 0 0 1 7.9 0Zm0-27.686L60.652 33.03 32.97 60.71 5.287 33.029zm1.975 11.887a1.975 1.975 0 1 1-3.95 0 1.975 1.975 0 0 1 3.95 0Zm-15.8 15.799a1.975 1.975 0 1 1-3.949 0 1.975 1.975 0 0 1 3.95 0Zm15.8 15.79a1.975 1.975 0 1 1-3.95 0 1.975 1.975 0 0 1 3.95 0Zm15.79-15.79a1.975 1.975 0 1 1-3.949 0 1.975 1.975 0 0 1 3.95 0Z" style="" stroke="#FFFFFF" fill="none"></path><defs><radialGradient id="icon-objective-1_svg__a" cx="0" cy="0" r="1" gradientTransform="matrix(0 -63.2117 63.2097 0 32.97 64.636)" gradientUnits="userSpaceOnUse"><stop stop-color="#5BB502"></stop><stop offset="1" stop-color="#42D73F"></stop></radialGradient></defs></svg>