<svg xmlns:xlink="http://www.w3.org/1999/xlink" xmlns="http://www.w3.org/2000/svg" fill="none" viewBox="0 0 66 66" class="css-1dwgdjl" width="66"  height="66" ><path stroke-linecap="square" stroke-linejoin="round" stroke-opacity="0.48" d="M44.866 25.132v-4.005h-4.005m4.005 0-7.955 7.947M25.086 21.12h-4.005v4.005m0-3.998 7.947 7.947m-7.955 11.833v3.997h4.005m-3.997 0 7.947-7.946m11.833 7.954h3.997v-4.005m0 4.005-7.947-7.954m9.866-21.755 3.958 3.958m-1.975-1.975 6.5-6.501m-40.104 8.523 3.958-3.957m-1.974 1.974-6.501-6.5m8.523 40.104-3.958-3.958m1.975 1.975-6.501 6.501m40.105-8.523-3.958 3.957m1.975-1.974 6.5 6.5m3.334-46.013a1.975 1.975 0 1 1-3.95 0 1.975 1.975 0 0 1 3.95 0Zm-47.41.032a1.975 1.975 0 1 1-3.95 0 1.975 1.975 0 0 1 3.95 0Zm.03 47.42a1.975 1.975 0 1 1-3.95 0 1.975 1.975 0 0 1 3.95 0Zm47.42-.04a1.975 1.975 0 1 1-3.95 0 1.975 1.975 0 0 1 3.95 0Z" style="" stroke="#FFFFFF" fill="none"></path><path stroke-linecap="square" stroke-linejoin="round" d="M29.02 36.965a3.95 3.95 0 1 0 3.95-3.95m-3.95 3.95a3.95 3.95 0 0 1 3.95-3.95m-3.95 3.95a3.95 3.95 0 0 0 3.95-3.95m-3.95 3.95a3.95 3.95 0 1 1 3.95-3.95m0 0a3.95 3.95 0 1 0 0-7.898 3.95 3.95 0 0 0 0 7.898Zm0 0a3.95 3.95 0 1 0 7.899 0 3.95 3.95 0 0 0-7.9 0Zm7.883-23.73v-7.89h-15.79v7.89m7.899 15.8v-14.29M25.039 33.03h-14.29m22.236 7.915v14.29M40.9 33.007h14.29M9.24 25.132H1.349v15.79H9.24m15.846 15.823v7.891h15.79v-7.891M56.7 40.899h7.892V25.108h-7.892M32.964 7.782a1.509 1.509 0 1 1-.007 3.017 1.509 1.509 0 0 1 .007-3.017ZM9.256 31.522a1.509 1.509 0 1 1-.007 3.017 1.509 1.509 0 0 1 .007-3.017ZM32.988 55.23a1.509 1.509 0 1 1-.008 3.018 1.509 1.509 0 0 1 .008-3.018Zm23.717-23.732a1.509 1.509 0 1 1-.008 3.017 1.509 1.509 0 0 1 .008-3.017Z" style="" stroke="#FFFFFF" fill="none"></path><defs><radialGradient id="icon-objective-5_svg__a" cx="0" cy="0" r="1" gradientTransform="matrix(0 -63.2415 63.242 0 32.871 64.636)" gradientUnits="userSpaceOnUse"><stop stop-color="#D80684"></stop><stop offset="1" stop-color="#E507DD"></stop></radialGradient></defs></svg>