<svg xmlns:xlink="http://www.w3.org/1999/xlink" xmlns="http://www.w3.org/2000/svg" fill="none" viewBox="0 0 64 64" class="css-1dwgdjl" width="64"  height="64" ><path fill-opacity="0.48" d="m41.327 42.083.353.353.708-.707-.354-.353zm-3.482-4.896-.354-.354-.707.707.354.354zm4.072-26.18.451.216.432-.902-.451-.216zm-20.47-.907a.5.5 0 0 0 .43.902zM6.032 5.342l-.353-.354-.707.707.353.354zm5.794 7.208.354.353.707-.707-.354-.353zM5.311 57.833l-.354.353.707.707.354-.353zm7.208-5.794.353-.354-.707-.707-.353.353zm45.283 6.516.353.354.707-.707-.353-.354zm-5.794-7.208-.354-.353-.707.707.354.353zm6.517-45.282.353-.354-.707-.707-.353.354zm-7.209 5.794-.353.354.707.707.353-.354zM37.16 26.016l-.353.353.707.707.353-.353zm-26.18-4.073a.5.5 0 0 0-.902-.432zm-.908 20.47.216.452.902-.43-.215-.452zm15.911-15.707.354.353.707-.707L26.69 26zm-4.072 26.18a.5.5 0 0 0-.432.901zm20.47.907.452-.215-.431-.903-.451.216zM26.68 37.877l.353-.353-.707-.707-.353.353zm26.179 4.072-.216.451.902.432.216-.45zm.908-20.47a.5.5 0 0 0-.903.43zM42.034 41.375l-4.19-4.19-.706.708 4.189 4.189zm.315-31.27a24.29 24.29 0 0 0-20.903-.006l.431.902a23.29 23.29 0 0 1 20.04.005zM5.326 6.048l6.501 6.501.707-.707-6.5-6.501zm.692 52.49 6.5-6.5-.706-.708-6.501 6.502zm52.491-.69-6.501-6.502-.707.707 6.5 6.501zm-.691-52.491-6.502 6.501.707.707 6.502-6.501zM41.35 21.827l-4.19 4.189.707.707 4.19-4.19zm-31.272-.316a24.29 24.29 0 0 0-.005 20.903l.902-.431a23.29 23.29 0 0 1 .005-20.04zm11.716 1.006 4.19 4.189.706-.707-4.189-4.19zm-.315 31.27a24.29 24.29 0 0 0 20.903.006l-.431-.902a23.29 23.29 0 0 1-20.04-.006zm1.012-11.72 4.189-4.19-.707-.707-4.19 4.19zm31.27.314a24.29 24.29 0 0 0 .006-20.903l-.903.431a23.29 23.29 0 0 1-.005 20.04zm-9.619-20.554a1.475 1.475 0 0 1-2.085 0l-.707.707a2.475 2.475 0 0 0 3.5 0zm-2.085 0a1.474 1.474 0 0 1 0-2.086l-.707-.707a2.474 2.474 0 0 0 0 3.5zm0-2.086a1.475 1.475 0 0 1 2.085 0l.708-.707a2.475 2.475 0 0 0-3.5 0zm2.085 0c.576.576.576 1.51 0 2.086l.708.707a2.475 2.475 0 0 0 0-3.5zM21.795 21.81a1.475 1.475 0 0 1-2.086 0l-.707.707a2.475 2.475 0 0 0 3.5 0zm-2.086 0a1.475 1.475 0 0 1 0-2.086l-.707-.707a2.475 2.475 0 0 0 0 3.5zm0-2.086a1.475 1.475 0 0 1 2.086 0l.707-.707a2.475 2.475 0 0 0-3.5 0zm2.086 0c.576.576.576 1.51 0 2.085l.707.708a2.474 2.474 0 0 0 0-3.5zm-.01 24.429a1.475 1.475 0 0 1-2.087 0l-.707.707a2.475 2.475 0 0 0 3.5 0zm-2.087 0a1.475 1.475 0 0 1 0-2.086l-.707-.707a2.475 2.475 0 0 0 0 3.5zm0-2.086a1.475 1.475 0 0 1 2.086 0l.707-.707a2.475 2.475 0 0 0-3.5 0zm2.086 0c.576.576.576 1.51 0 2.086l.707.707a2.475 2.475 0 0 0 0-3.5zM44.12 44.17a1.475 1.475 0 0 1-2.086 0l-.707.707a2.475 2.475 0 0 0 3.5 0zm-2.086 0a1.475 1.475 0 0 1 0-2.086l-.707-.707a2.475 2.475 0 0 0 0 3.5zm0-2.086a1.475 1.475 0 0 1 2.086 0l.707-.707a2.475 2.475 0 0 0-3.5 0zm2.086 0c.576.576.576 1.51 0 2.086l.707.707a2.475 2.475 0 0 0 0-3.5z" style="" fill="#FFFFFF"></path><path stroke-linecap="square" stroke-linejoin="round" d="m49.384 25.672 4.854-4.854a7.9 7.9 0 0 0 0-11.171 7.9 7.9 0 0 0-11.171 0L38.213 14.5m-12.574-.018-4.854-4.854a7.9 7.9 0 0 0-11.171 0 7.9 7.9 0 0 0 0 11.17l4.853 4.855M25.64 14.483a.987.987 0 1 0 1.396 1.396.987.987 0 0 0-1.396-1.396ZM14.45 38.227l-4.854 4.854a7.9 7.9 0 0 0 0 11.171 7.9 7.9 0 0 0 11.172 0l4.854-4.854m12.574.017 4.854 4.854a7.9 7.9 0 0 0 11.171 0 7.9 7.9 0 0 0 0-11.171l-4.854-4.854m-21.4-2.35a3.95 3.95 0 1 1 0-7.9 3.95 3.95 0 0 1 0 7.9Zm3.95 3.95a3.95 3.95 0 1 1 0-7.9 3.95 3.95 0 0 1 0 7.9Zm3.95-3.95a3.95 3.95 0 1 1 0-7.9 3.95 3.95 0 0 1 0 7.9Zm-3.95-3.951a3.95 3.95 0 1 1 0-7.9 3.95 3.95 0 0 1 0 7.9ZM6.258 4.297a1.975 1.975 0 1 1-3.95 0 1.975 1.975 0 0 1 3.95 0Zm-.015 55.287a1.975 1.975 0 1 1-3.95 0 1.975 1.975 0 0 1 3.95 0Zm55.287.008a1.975 1.975 0 1 1-3.95 0 1.975 1.975 0 0 1 3.95 0Zm.008-55.279a1.975 1.975 0 1 1-3.95 0 1.975 1.975 0 0 1 3.95 0ZM38.197 15.88a.988.988 0 1 1-1.397-1.397.988.988 0 0 1 1.396 1.397Zm11.187 11.188a.988.988 0 1 1-1.397-1.397.988.988 0 0 1 1.397 1.397Zm-33.537-.001a.987.987 0 1 1-1.397-1.397.987.987 0 0 1 1.397 1.397ZM27.042 49.41a.987.987 0 1 1-1.397-1.396.987.987 0 0 1 1.397 1.396ZM15.853 38.222a.987.987 0 1 1-1.396-1.396.987.987 0 0 1 1.396 1.396Zm33.525 0a.987.987 0 1 1-1.397-1.397.987.987 0 0 1 1.397 1.397ZM38.189 49.41a.987.987 0 1 1-1.396-1.397.987.987 0 0 1 1.396 1.397Z" style="" stroke="#FFFFFF" fill="none"></path><defs><radialGradient id="icon-objective-4_svg__a" cx="0" cy="0" r="1" gradientTransform="rotate(-90 46.648 14.919)scale(59.2446)" gradientUnits="userSpaceOnUse"><stop stop-color="#C417E0"></stop><stop offset="1" stop-color="#A218F6"></stop></radialGradient></defs></svg>