<svg xmlns:xlink="http://www.w3.org/1999/xlink" xmlns="http://www.w3.org/2000/svg" fill="none" viewBox="0 0 66 66" class="css-1dwgdjl" width="66"  height="66" ><path stroke-linecap="square" stroke-linejoin="round" stroke-opacity="0.48" d="m17.187 17.059-6.485-6.486m38.082 6.486 6.485-6.486M17.187 48.656l-6.485 6.493m38.082-6.493 6.485 6.493M21.135 21.032h23.706m-19.756-3.958H40.89M25.085 48.672H40.89m-19.756-3.99h23.706M17.178 24.959h7.892m15.83 0h7.89m-31.612 15.79h7.892m15.83 0h7.89M9.3 11.973 6.507 9.18 9.3 6.387l2.792 2.793zm44.574-2.789 2.792-2.793 2.793 2.793-2.793 2.793zM12.09 56.543l-2.793 2.793-2.793-2.793 2.793-2.793zm44.576-2.796 2.792 2.793-2.792 2.793-2.793-2.793z" style="" stroke="#FFFFFF" fill="none"></path><path stroke-linecap="square" stroke-linejoin="round" d="m56.682 40.757 7.899-7.9-7.9-7.898m-31.603 7.899H11.27m13.808 0a3.95 3.95 0 0 0 3.948 3.95m-3.948-3.95a3.95 3.95 0 0 1 3.948-3.95m25.682 3.95H40.876m0 0a3.95 3.95 0 0 1-7.9 0m7.9 0a3.95 3.95 0 0 0-7.9 0m-23.682-7.9-7.9 7.9 7.9 7.9m23.69 15.798v8.002m0-63.18v7.995m3.95 43.233-3.95 3.95-3.95-3.95m0-39.497 3.95-3.95 3.95 3.95m-7.908 23.699a3.95 3.95 0 1 0 3.95-3.95m-3.95 3.95a3.95 3.95 0 0 1 3.95-3.95m-3.95 3.95a3.95 3.95 0 0 0 3.95-3.95m0 0a3.95 3.95 0 1 0-3.95-3.95m3.95 3.95a3.95 3.95 0 0 1-3.95-3.95m3.95 3.95a3.95 3.95 0 0 0-3.95-3.95m-17.757 3.95a1.975 1.975 0 1 1-3.95 0 1.975 1.975 0 0 1 3.95 0Zm47.388 0a1.975 1.975 0 1 1-3.95 0 1.975 1.975 0 0 1 3.95 0Z" style="" stroke="#FFFFFF" fill="none"></path><defs><radialGradient id="icon-objective-3_svg__a" cx="0" cy="0" r="1" gradientTransform="matrix(0 -63.1787 63.1864 0 33.184 64.558)" gradientUnits="userSpaceOnUse"><stop stop-color="#4562F5"></stop><stop offset="1" stop-color="#4594F0"></stop></radialGradient></defs></svg>